PathFileType	4	(X/Y/Z)	c:/Users/goper/Files/vsCode/490R/osim_files/A03/A03_Fast_05.trc
DataRate	CameraRate	NumFrames	NumMarkers	Units                	OrigDataRate	OrigDataStartFrame	OrigNumFrames
250.00	250.00	6	36	mm	250.0	976	2602
                Frame#	Time	LPSIS			LASIS			LTH1			LTH2			LTH3			LTH4			LLFE			LMFE			LSH1			LSH2			LSH3			LSH4			LLMAL			LMMAL			LCAL			LMTP5			LTOE			LMTP1			RPSIS			RASIS			RTH1			RTH2			RTH3			RTH4			RLFE			RMFE			RSH1			RSH2			RSH3			RSH4			RLMAL			RMMAL			RCAL			RMTP1			RTOE			RMTP5		
		X1	Y1	Z1	X2	Y2	Z2	X3	Y3	Z3	X4	Y4	Z4	X5	Y5	Z5	X6	Y6	Z6	X7	Y7	Z7	X8	Y8	Z8	X9	Y9	Z9	X10	Y10	Z10	X11	Y11	Z11	X12	Y12	Z12	X13	Y13	Z13	X14	Y14	Z14	X15	Y15	Z15	X16	Y16	Z16	X17	Y17	Z17	X18	Y18	Z18	X19	Y19	Z19	X20	Y20	Z20	X21	Y21	Z21	X22	Y22	Z22	X23	Y23	Z23	X24	Y24	Z24	X25	Y25	Z25	X26	Y26	Z26	X27	Y27	Z27	X28	Y28	Z28	X29	Y29	Z29	X30	Y30	Z30	X31	Y31	Z31	X32	Y32	Z32	X33	Y33	Z33	X34	Y34	Z34	X35	Y35	Z35	X36	Y36	Z36

976	3.90000	825.86829	1037.58203	280.28189	581.00867	947.64587	400.33969	515.68030	625.07281	437.80103	491.01843	589.86969	437.26395	464.63263	653.89087	418.73022	447.79343	613.00623	420.23267	483.02173	542.74054	427.10141	460.72650	550.11682	272.34015	518.46948	454.57169	420.39017	511.65106	406.38956	415.85645	456.11328	455.30646	415.63150	461.15753	407.74667	406.88727	482.16776	90.88171	359.52829	473.21088	102.38910	263.47592	551.00647	76.44700	307.08875	329.12375	44.10038	368.80072	303.24863	79.07650	300.08624	332.84723	56.71284	255.41296	828.80457	1046.78320	197.95316	609.42926	927.39709	88.50775	759.05511	582.58789	28.19146	767.60413	539.75903	31.35829	699.54340	566.37653	23.60228	715.60754	525.76959	26.27657	752.20056	499.75836	42.24834	701.99738	482.96744	154.56511	831.67163	484.79614	45.51908	862.26007	456.16351	35.10030	790.86627	435.26654	39.06157	832.80371	412.93826	27.56947	1068.46216	218.56075	89.62170	0.00000	0.00000	0.00000	1136.49438	233.03868	147.59468	1019.29230	64.18051	205.71472	987.20410	62.87745	156.87611	1036.69556	52.80309	90.11608
977	3.90400	820.59985	1038.59009	280.47620	575.31012	948.51447	400.61621	511.93161	625.08569	438.51358	487.56177	589.71484	438.15979	460.85422	653.34381	419.86310	444.01700	612.58862	421.38678	479.31525	542.75403	427.94247	457.23587	550.16937	273.26166	515.35730	454.82846	421.11218	509.00323	406.61206	416.52325	453.60580	454.50543	415.75754	458.40286	407.61490	407.50330	481.99817	90.93954	359.58777	473.02487	102.44293	263.53683	550.90247	76.64545	307.14581	329.02332	43.93666	368.76389	303.07443	78.82641	300.05606	332.75034	56.50024	255.41733	823.16022	1047.30969	198.12776	603.15454	928.59302	89.11502	748.39893	582.46100	27.73845	756.75061	539.59607	30.98799	688.79767	566.55945	23.37663	704.14087	525.71405	27.42480	741.16345	499.85019	41.88467	691.77582	483.43222	154.71144	820.82184	486.28204	44.63721	851.31702	457.69168	34.24622	780.17688	436.18408	38.60869	819.56903	411.67856	30.77139	1059.69507	222.48962	88.09516	0.00000	0.00000	0.00000	1126.94373	239.99953	145.30394	1016.58624	66.95599	205.18858	983.97638	64.08189	156.15393	1034.02393	55.12266	89.36193
978	3.90800	814.73474	1039.42444	280.78668	569.66675	949.43555	400.88702	508.27917	625.13574	439.24533	484.18536	589.59723	438.94809	456.69061	653.04529	420.82083	440.43097	612.14233	422.38165	475.75943	542.75012	428.70703	453.88522	550.23053	274.15262	512.41919	455.06244	421.71573	506.33530	406.81171	417.04599	450.65057	454.33893	416.39734	455.82645	407.45587	408.07114	481.86041	90.98621	359.62408	472.87381	102.47918	263.54147	550.75214	76.81617	307.19501	328.98816	43.83324	368.74622	302.95154	78.63315	299.99933	332.72330	56.57420	255.14380	817.53723	1047.86340	198.34950	596.90125	929.85583	89.71174	737.69507	582.49585	27.23659	745.63593	539.40247	30.68558	677.89026	566.77289	23.31838	693.11725	525.93542	27.35540	729.95929	500.00137	41.61208	681.41321	484.05487	154.92650	809.58612	487.62192	43.98391	840.53052	460.13174	33.40511	769.30920	437.13959	38.25927	809.49561	413.68488	29.10375	1050.80713	226.54781	86.63876	0.00000	0.00000	0.00000	1117.25171	247.08418	143.16090	1013.89911	69.75352	204.32570	980.19330	64.87901	155.76575	1031.02014	57.76718	88.47955
979	3.91200	809.21814	1040.37927	281.02246	564.08136	950.40912	401.15234	504.47797	625.14441	439.51538	480.76062	589.46716	439.64957	452.68826	652.74127	421.66895	436.80368	611.73938	423.23761	472.26990	542.71503	429.35471	450.58386	550.01086	274.68533	509.54544	455.30185	422.25003	503.86676	407.00507	417.57730	447.80994	454.15735	416.93213	453.30173	407.35516	408.54434	481.77213	91.04623	359.65973	472.74579	102.52271	263.57370	550.66595	76.97078	307.21732	328.93292	43.72208	368.71100	302.83182	78.43070	299.94543	332.63828	56.42403	255.13589	811.96338	1048.42859	198.53363	590.68036	931.16327	90.36568	726.85907	582.59888	26.85877	734.59222	539.49078	30.39700	667.02850	567.24658	23.16601	681.97095	526.35486	27.38548	718.75311	500.34686	41.28674	671.12445	484.87250	155.31715	798.19202	488.96783	43.36205	829.54352	461.61139	32.74627	758.29840	438.21481	37.96047	798.64734	415.01709	28.62936	1041.75623	230.77623	85.38795	0.00000	0.00000	0.00000	1107.28906	254.26152	141.09737	1010.50171	72.85037	203.04308	976.54285	66.08356	155.08200	1027.65222	60.59261	87.51708
980	3.91600	803.70789	1041.31604	281.31537	558.55664	951.43542	401.41226	500.81247	625.16760	440.05859	477.35266	589.33942	440.27283	448.83749	652.26398	422.47693	433.23975	611.28528	423.90359	468.88596	542.66113	429.92075	447.24280	549.97687	275.19751	507.14072	455.54791	422.70956	501.39157	407.22183	417.99832	445.03146	453.95337	417.39362	450.82870	407.21976	408.95129	481.63336	91.05453	359.72433	472.62634	102.60339	263.59509	550.57611	77.10526	307.27158	328.85770	43.59460	368.69458	302.67609	78.17916	299.93436	332.55212	56.29509	255.10004	806.31116	1048.95593	198.80563	584.38019	932.52075	91.06372	715.93762	582.84570	26.52085	723.63287	539.87518	30.12917	656.03217	567.90356	23.19672	670.81232	526.87476	27.40806	708.24286	501.55884	40.53469	660.78131	485.72400	155.70853	786.65149	490.29086	42.80222	817.81952	463.14429	32.05167	747.16998	439.23001	37.79284	787.10938	415.84869	29.13048	1032.56970	235.15390	84.32109	0.00000	0.00000	0.00000	1096.81348	261.19089	138.99174	1006.61523	76.19583	202.02016	972.55951	67.44619	154.36011	1023.88287	63.59207	86.54390
981	3.92000	798.23120	1042.27637	281.64297	553.09528	952.51434	401.66702	497.12308	625.17041	440.47015	473.99237	589.25720	440.81406	444.84491	651.95166	423.26114	429.68530	610.92218	424.49866	465.60376	542.66064	430.40039	443.93439	549.96967	275.72293	504.00281	455.72800	423.16638	498.93677	407.40140	418.35147	442.31812	453.82602	417.76794	448.41095	407.08090	409.31662	481.49969	91.08972	359.73798	472.49811	102.64868	263.62033	550.44629	77.21711	307.31461	328.76199	43.45273	368.68622	302.49350	77.99582	299.95023	332.45822	55.87099	255.31456	800.71100	1049.53296	199.07834	578.13708	933.87097	91.79226	705.00696	583.35028	26.25011	712.43762	540.27838	29.93885	644.91956	568.63318	23.30972	659.49323	527.58020	27.55540	695.97992	501.35196	40.92604	650.32373	486.70844	156.18806	774.97473	491.64197	42.31004	806.59045	464.60724	31.48494	735.90308	440.20148	37.74395	776.51831	417.62680	27.96190	1023.28284	239.74924	83.44351	0.00000	0.00000	0.00000	1086.04858	268.14084	136.94904	1002.25940	79.63017	200.92314	968.55377	69.07639	153.08176	1019.69733	66.67812	85.64623
